<svg xmlns="http://www.w3.org/2000/svg" width="256" height="162" fill="none" viewBox="0 0 256 162">
<!-- SVG created with Arrow, by QuiverAI (https://quiver.ai) -->
  <path d="m255.8 0h-255.7v162h255.7v-162z" fill="#06070E"/>
  <path d="m3.83 14.74v126.4c0 9.35 6.58 17.05 17.28 17.05l98.01-0.05c3.31 0 3.59-2.91 1.89-4.68l-19.8-21.94c-1.83-2.04-3.28-2.99-6.85-2.99h-46.9c-8.34 0-10.82-4.09-10.82-10.5v-111.3c0-2.74-1.31-3.34-3.87-3.34h-19.98c-5.6 0-8.96 5.58-8.96 11.38z" fill="url(#paint0_linear_1111_1735)"/>
  <path d="m61.41 7.31v41.97c0 2.19 0.68 3.37 1.81 4.57l83.55 91.96c3.31 2.8 9.26 2.76 11.86-0.7l37.96-49.06c0.24-0.41 0-0.29-0.23-0.04-7.95 7.21-19.07 14.27-31.08 14.53-9.83 0.23-19.17-2.56-19.17-8.51 0-2.28 3.17-4.89 3.17-7.51 0-2.39 0-4.55-2.12-6.96l-64.99-79.55c-3.35-3.34-6.59-4.65-11.04-4.65h-5.6c-2.71 0-4.12 0.88-4.12 3.95z" fill="url(#paint1_linear_1111_1735)"/>
  <path d="m252.6 20.22c0-9.51-8.73-15.77-15.6-15.54-7.15-0.23-11.66 2.56-18.3 9.35l-34.81 43.65c-1.12 1.43-1.12 1.95 0 2.79l23.4 22.09c4.03-3.46 9.01-9.48 12.51-13.54v86.2c0 2.53 1.08 3.19 3.24 3.19h20.64c6.35 0 8.92-5 8.92-9.25v-128.9z" fill="#FEFEFF"/>
  <path d="m158.9 67.07-1.19 5.72 18.02 12.56-16.9 11.2v5.17h9.02l23.13-15.46v-3.02l-20.64-15.62c-1.05-0.66-1.9-0.55-2.98-0.55h-8.46z" fill="#FEFEFF"/>
  <path d="m127.6 87.41c-1.25 0-1.98 0.75-1.98 2v4.31c0 1.14 0.73 1.86 1.87 1.86h21.32c1.14 0 1.67-0.72 1.67-1.86v-4.31c0-1.14-0.64-2-1.89-2h-20.99z" fill="#EBBFFF"/>
  <defs>
    <linearGradient id="paint0_linear_1111_1735" x1="19.24" x2="58.43" y1="-6.814" y2="166.5" gradientUnits="userSpaceOnUse">
      <stop stop-color="#A235E6" offset="0"/>
      <stop stop-color="#6622B5" offset=".4844"/>
      <stop stop-color="#260D6A" offset="1"/>
    </linearGradient>
    <linearGradient id="paint1_linear_1111_1735" x1="150" x2="187.5" y1="90.5" y2="104" gradientUnits="userSpaceOnUse">
      <stop stop-color="#1C0839" offset="0"/>
      <stop stop-color="#B9A3C5" stop-opacity=".95" offset="1"/>
    </linearGradient>
  </defs>
</svg>